<?xml version="1.0" encoding="utf-8"?>
<!-- Generator: Adobe Illustrator 26.0.0, SVG Export Plug-In . SVG Version: 6.00 Build 0)  -->
<svg version="1.1" id="Capa_1" xmlns="http://www.w3.org/2000/svg" xmlns:xlink="http://www.w3.org/1999/xlink" x="0px" y="0px"
	 viewBox="0 0 444 195" style="enable-background:new 0 0 444 195;" xml:space="preserve">
<style type="text/css">
	.st0{fill:#8E56EA;}
	.st1{fill:#A574ED;}
	.st2{fill:#C19AF4;}
</style>
<path class="st0" d="M147,84.4h24.8L147,46.9h-24.8L147,84.4z"/>
<path class="st1" d="M121.6,84.4H96.8l24.8-37.5h24.8L121.6,84.4z"/>
<path class="st2" d="M147,121.9V84.4h24.8v37.5H147z"/>
<path class="st2" d="M96.8,121.9V84.4h24.8v37.5H96.8z"/>
<path class="st1" d="M147,159.3h-24.8l24.8-37.5h24.8L147,159.3z"/>
<path class="st0" d="M122.2,159.3H147l-24.8-37.5H97.4L122.2,159.3z"/>
<path class="st0" d="M197.1,84.4h24.8l-24.8-37.5h-24.8L197.1,84.4z"/>
<path class="st1" d="M171.8,84.4H147l24.8-37.5h24.8L171.8,84.4z"/>
<path class="st2" d="M197.1,121.9V84.4h24.8v37.5H197.1z"/>
<path class="st2" d="M147,121.9V84.4h24.8v37.5H147z"/>
<path class="st1" d="M197.1,159.3h-24.8l24.8-37.5h24.8L197.1,159.3z"/>
<path class="st0" d="M172.4,159.3h24.8l-24.8-37.5h-24.8L172.4,159.3z"/>
</svg>
